<?xml version="1.0" encoding="UTF-8" standalone="no"?>
<!DOCTYPE svg PUBLIC "-//W3C//DTD SVG 1.1//EN" "http://www.w3.org/Graphics/SVG/1.1/DTD/svg11.dtd">
<svg xmlns="http://www.w3.org/2000/svg" version="1.1" xmlns:xlink="http://www.w3.org/1999/xlink" width="650px" height="3030.0px">
<style>text {font-family:PingFangSC-Regular, Microsoft YaHei, 'Hiragino Sans GB', Helvetica; ;font-size:14px;fill:#333;}</style>
	<text x="0" y="40">艺馅鹊干宰已烘在饲诱书等领筝榴败壁励恢况叮厘凝怎垮铸每厉贝爆肃航孩今鉴税宴拣蜓增固竟</text>
	<text x="0" y="84">息输搜溜责喂瓜涝态派拿警纷夕册砖简箱司涌旨撞遭毯猪惜现仍胜战农颤姜睡凤救调源勺料看螺</text>
	<text x="0" y="130">苦因恨坑昂袋勇庙咸肠订安乖松存长俊虏诞眉呈成哗融策判脑俱门先决可手掌果缎偷临忆九紫腹</text>
	<text x="0" y="174">组接摔六求竖矩腿蕉爹浆哥归尼更偿该唤祸皱渴红井逗小滨库继乡室琴询葡过赢透峰爷荷阶蔑运</text>
	<text x="0" y="220">皂掏扣池祝飞水谁叔泽抹提敲黎越丁家熊移弓摘处兔羊挑将属烂景嚷暮浪绩毛陶坟菜绸绘衬赔芒</text>
	<text x="0" y="252">封耀边剩肌牙强象例令稀如趴诊园脖爪各切希迹姻涉焰残煎雷产来笑够斧劲浴词素哨肺嗓啦乓江</text>
	<text x="0" y="284">横详缓颠近替略怠珍贩悉叹崇答贪奉欣咳旗工群爬辜扮昌耍骤轿屑挨块竹欢辩姑锤交晶丈塞掩葵</text>
	<text x="0" y="332">十膨男票谊译躲她闯益帖怕戚公庆页懂痛茄掉锦丛袭巾草确傅粥邀储猛骄澡扬损诗筛术末炼大远</text>
	<text x="0" y="374">桃差阳误浓有牵圆味症核万妨老笼葱观作墓膝线序铁识吴静堆活最俩隆管刚段疑届使握赠角沿本</text>
	<text x="0" y="415">闹能殖也晃肤赌吹歌柿滑又么邪宇躺肚业摇只者狐芽到恋倡其克矛而团分糟川守纽雀投山娃赖默</text>
	<text x="0" y="463">首夏附森戏凯贴解菠纲动叫报油竿音冻役把受炸赴棒两拖单烫知奏培渔控酱扔蛛慈旦炎虑锁苹摩</text>
	<text x="0" y="508">故塘放留棍臣谢疮鞠乎夫冰钓快白河胀扒坛斑桨沫应俭异追钻情范渐孝挪狼剂恩辣聋烈蠢县裁汇</text>
	<text x="0" y="546">薪城庭醒珠献雪马遇厅商丙碰颂亦汉侄逮酷蓬吵度复质尤愤嚼誉信午未脱愿卸些爽皇验个霉晒副</text>
	<text x="0" y="579">钞赶贵健评促嘱论窗私饰滤佛同燕岸当血视羽含妥滚位梨棵偏青玻谈剥对衣野阿莲需突徒滔君董</text>
	<text x="0" y="621">斥爸重欺杆哈餐诸雨披妈队浑指拾搏卜豆峡为佣档惹歉深随奔央纱盐包精请倾炒仪混飘科踩征抗</text>
	<text x="0" y="668">恳宁施盈塑绵前迅迷宗毕编烧舟孤泉滴往凭铲督爱辞龙民酬托窜条执罢择亏糊怀悼叶礼龄那炕牛</text>
	<text x="0" y="717">娇溉暗博充辰道进导破代环乐样吞杀值俗任依装货艇但力脸帝锡亲仿然逃盲既巷撒中读裂婆洋纪</text>
	<text x="0" y="756">悦租慢耳魔式逝惰薄退美匆停证您筹高矮字鱼吉瘦窑黄狠暑务洲限猫济芦腰树拜津据浩符胸政危</text>
	<text x="0" y="797">粒肉权律厦蝴倚坐率丰估饥空薯忠注锣鄙弄刊介胶终疲剑旧躬访忧炮卖笨占费思眠补结避胃鞭篮</text>
	<text x="0" y="847">世沸里徐拨刺牢多磨旱柔习烟籍称涨呢楼鸣盏宝旁脾升趋势镰丸盒幸聚海眼探逼毁百件忘划膜财</text>
	<text x="0" y="882">温捧返轰吊冶囊缘女集眨他墙贼虎渡肩禽讨技埋镜驱植迎释茅阔屠醋跟巡捡久鲁脂积腥致柳脚奸</text>
	<text x="0" y="931">去隙忍勾唯辉我标赵汁巧窄煌翼孔沃木撤从望润牧排稳甜朴统础厌铺聪泻除诵俘齿寇旋争即壤乳</text>
	<text x="0" y="973">球唉伙负顾碗曲栗株李善尺按疾剖绝蛙浊均乒振激面没北死场鸡族哑推樱互闭刃铃瑞棚系穴摆喘</text>
	<text x="0" y="1021">挂漠睁宏颗迈种盘宾话蛾暂售底裕娘拼览尘遮研置招轧拍造虚笛抄韵点难饼期著辨全欠堵捞汽至</text>
	<text x="0" y="1065">俯玉甩艳诚断锋酸捕药听丧碌拉签必洽贯宵兆叙一免胆伏妹喇湿仆赤宪微努沙姥周刀沉考胖弹定</text>
	<text x="0" y="1111">旷候纯填层废压币荣数境愉给倘枕吼台兰违幕军吩满悄竞冈阴监状隶展构月色扁房勉阵说方非忽</text>
	<text x="0" y="1161">孟口隔艰筒踏量显起潮摸惑银露消熔弊此陪捐陆搅肥机跌细堂职辛荒仅蒸尊撑慧生桥杜慰窝熟惧</text>
	<text x="0" y="1201">育灾出真椒实灭纹寸酿套卫疼洞柜牌盼电壶走袖名洁布揭还硬敏秘引矿彻粮优历庄舍筐像畅发达</text>
	<text x="0" y="1237">且劫站崭做宫八速带钱坡品镇价备似早完鹿侦取震热坏疯父吗改搂头睛普斤原贫社姨盯狮霸叠脏</text>
	<text x="0" y="1282">喜丘码另锐途仇较牺驻鸭扩化湖延曾总坚菊配域泄橡厕目仰车席碑它债裤永卡衔节雄很翻项堤泛</text>
	<text x="0" y="1324">是之懒衰香般哲描岭絮饭扰创鹅雅双砌共查吨外剧风宽待背肆养咱绣腊犹困讯纸亡康圾垫浇烛缺</text>
	<text x="0" y="1358">柱佳惕第窃燃柴袜键抱沾款泪宋朝就盗贿良恰皆竭鲜倒准折肝遣艘设急臂垂摊妖愈惠预郊法怖夸</text>
	<text x="0" y="1401">险杂猾住销阻子触欲绍罐童辅英坝鸟荡熄奶捉意姓索摧乞浸唇咽杯娱伸凡都串潜霜获漏光颜甘吃</text>
	<text x="0" y="1446">愁橘膊狗照传顷番雕杨罪孕金枪岔暴邻崖麻弟扎茧稻伴痒入易伯惨壳眯疏掠幅部耗转形铜时容桂</text>
	<text x="0" y="1493">内哀涛岗扫廊弱郑护魄通物拔搞蛮链五着付笔规悔液慨茂冒须们帮训陡零秀楚尽腾唐疆散察基夺</text>
	<text x="0" y="1531">程妻劳挡耽仗靠揉丑泥波括己障讽主鸦桑富经觉绒凶卧四官回步师廉锯祖加命帽类向检帜旺赏季</text>
	<text x="0" y="1577">挺合屈模肾嗽疤炉炊绪顽几蜜盖滩葛旬志惩拳丹膏洪田射壮叼狸擦虽萄享事企止畜虫得哪敢省凳</text>
	<text x="0" y="1611">粘垦侵钉句支骑豪骆跪写晋级与茎苗驴被找京腔左汗蓝防利秃概营瞒蚂助型灿船蚕胳仓偶捆灌朋</text>
	<text x="0" y="1653">慕宅伐顿播悠戒份柏祥阅岛毫西痕谷密失连陷驶穗灵弃列言换辟舌圈搁座千箭始义华架覆陕赚犬</text>
	<text x="0" y="1684">遗悲错院枯跑瞎路晴太郎谨及蜡厚璃芹杏械局染敬驼秒亚维登忌呼辽算掀审袍淋落渗禁治禾毙效</text>
	<text x="0" y="1722">浮元屋让蜂绞攀端寒饶逆疗晚辫贱兼脊狭国针悬咐建扯叉臭毒刻糖影顺感污尿匙织要年问医抽允</text>
	<text x="0" y="1757">谣踢榜短睬沟胁蔬侧恭稿枝怨鼻顶格乔明枣脉蝶吸馋塔蒜鹰傍试弦议屿浙渠并喷帐游鼓许余阀妙</text>
	<text x="0" y="1791">新揪板则计榆煤供掘告彩遍桶寻堪汪斗日骨疫典茫戴蛇拆石凉截践讲柄歪吓攻穷恐杰筋齐呆校丝</text>
	<text x="0" y="1835">服傲敞别醉溪冬渣纤夜州纺舰亿痰谅斯士休撇便抛夹龟糠迁惯语箩瓶撕床堡收谜股椅相蝇纳捏咬</text>
	<text x="0" y="1881">福初辆锅仁宜鞋超糕召怒繁淡适所朗吐母淹棉亭儿专遵喊围花僻打魂批槽正具鼠宙贤某罗累梦幻</text>
	<text x="0" y="1923">拥霞闪厨纠心承惭尖秆罚你闻启肢帘绢绳惊侨馒由芝演乏颈倍七智挥诉贡殊理净宣誓貌抖整开狡</text>
	<text x="0" y="1954">蹄坊啄栽拴钢暖忙卷跨彼扇棋砍啊裙萌呜跃慎抢趣佩神南焦衡认鸽缠尸袄二匠沈操刷协后拌古兵</text>
	<text x="0" y="1989">悟示衫次才冷插器苏云绑岂侮羞究极辱清嘴胞寿直碧了黑绿缩嫂晓稠葬蹦姿氏晨比友伤抚菌铅肿</text>
	<text x="0" y="2033">桐蜘予伟踪奥文滋奋赞愚垃帆软援轻史勒腐唱牲挠苍欧刮抬秩婶映纵猜平嫩舒饿妇泡自躁员冠荐</text>
	<text x="0" y="2070">粗嫁制劈贸于钳测缝址朵敌泼片烦秋蚀仙毅酒挽流妄什皮土殿地犁栏缸瓣谱亮闸申墨录寨春骡削</text>
	<text x="0" y="2118">弯扭盾距喝武湾删垄锹以载上罩旅挤气兽尝蒙严德虾寄户网厂办捷授不舅采饺畏蓄挖丢陵慌趟添</text>
	<text x="0" y="2159">岁锻梁威立翁减汤巩广资搬拒庸拢莫棕瞧劝耻闷坦害教屡店谎紧选性怜劣哄念嫌奴却界的材膛和</text>
	<text x="0" y="2198">僵舞扶常送尚修扛降伞携泊芬鬼循跳假御奖陈号雹巨摄离泰港喉蚁塌猎押乙挎萝灰逢冤趁际保谋</text>
	<text x="0" y="2233">歼关少辈寺火奇伪婚骗束匪刘稼再桌丽烤盛委蹈梢宿人粱遥割殃仔篇驾晕巴恒剪若勤章身秤怪梯</text>
	<text x="0" y="2267">患燥岩持参甲券径灯姐犯愧蚊茶洒独虹乌兴裹画冲蜻根傻昆迫帅煮绕响尾羡盟何伍洗闲钩朽米稍</text>
	<text x="0" y="2313">驰隐下漫街倦肯捎兄轨贺呀朱昨蹲幼林间恶抓咏否课递膀磁锄表碍梳馆革扑半萍挣雁低孙买粪见</text>
	<text x="0" y="2357">班饮逐题梅续垒约邮客勿穿甚玩众笋耕狂斩三耐担淘吧右盆槐图亩秧用雾杠额侍筑贷钥练举王这</text>
	<text x="0" y="2388">星乘病斜天裳案狱漂贞版饱剃联叛缴框拐脆抵村足赛歇蛋圣行乱翠搭无锈猴迟析栋屯钟浅居击党</text>
	<text x="0" y="2430">凑昏谦区灶昼刑络泳张会粉舱市蔽食拘榨氧借匹匀想翅购记乃声瓦催阁漆恼功骂学述藏芳炭特晌</text>
	<text x="0" y="2467">麦碎胡变僚哭拦府叨好卵伶轮驳体或涂嘉反滥东</text>
</svg>